<svg width="256" height="256" viewBox="0 0 256 256" fill="none" xmlns="http://www.w3.org/2000/svg">
<rect width="256" height="256" fill="#F5FBFF"/>
<path d="M153.533 13H52.3049C47.7795 13 43.4394 14.8782 40.2394 18.2215C37.0394 21.5648 35.2417 26.0993 35.2417 30.8274V227.919C35.2417 232.647 37.0394 237.182 40.2394 240.525C43.4394 243.868 47.7795 245.747 52.3049 245.747H203.504C205.741 245.747 207.957 245.285 210.023 244.388C212.09 243.492 213.966 242.177 215.545 240.521C217.124 238.865 218.375 236.899 219.225 234.736C220.075 232.574 220.508 230.257 220.499 227.919V83.0362L153.533 13Z" fill="#009BFF"/>
<path d="M79.2628 119.774H74.5231C72.8173 119.769 71.1723 120.436 69.9169 121.642C68.6616 122.849 67.8884 124.506 67.752 126.283V126.849C67.8884 128.625 68.6616 130.282 69.9169 131.489C71.1723 132.696 72.8173 133.363 74.5231 133.357H79.2628C81.0587 133.357 82.7809 132.612 84.0507 131.285C85.3206 129.958 86.034 128.159 86.034 126.283C85.8975 124.506 85.1243 122.849 83.869 121.642C82.6136 120.436 80.9686 119.769 79.2628 119.774Z" fill="#FFDD5E"/>
<path d="M185.637 202.192V202.687C185.501 204.463 184.727 206.121 183.472 207.327C182.217 208.534 180.572 209.201 178.866 209.195H167.287C165.492 209.195 163.769 208.45 162.499 207.123C161.23 205.797 160.516 203.997 160.516 202.121C160.526 201.221 160.717 200.333 161.079 199.516C161.441 198.699 161.965 197.971 162.615 197.381C163.957 196.081 165.728 195.371 167.558 195.4H179.205C180.895 195.487 182.493 196.233 183.684 197.49C184.875 198.747 185.571 200.424 185.637 202.192Z" fill="#FFDD5E"/>
<path d="M67.8273 88.8395C67.8273 85.0042 70.8077 81.8951 74.4842 81.8951H139.652C143.328 81.8951 146.308 85.0042 146.308 88.8395C146.308 92.6747 143.328 95.7838 139.652 95.7838H74.4842C70.8077 95.7838 67.8273 92.6747 67.8273 88.8395Z" fill="white"/>
<path d="M100.937 126.485C100.937 122.65 103.917 119.541 107.593 119.541H179.067C182.744 119.541 185.724 122.65 185.724 126.485C185.724 130.32 182.744 133.429 179.067 133.429H107.593C103.917 133.429 100.937 130.32 100.937 126.485Z" fill="white"/>
<path d="M67.8273 202.507C67.8273 198.672 70.8077 195.563 74.4842 195.563H138.951C142.627 195.563 145.608 198.672 145.608 202.507C145.608 206.342 142.627 209.451 138.951 209.451H74.4842C70.8077 209.451 67.8273 206.342 67.8273 202.507Z" fill="white"/>
<path d="M67.8273 164.679C67.8273 160.843 70.8077 157.734 74.4842 157.734H179.067C182.744 157.734 185.724 160.843 185.724 164.679C185.724 168.514 182.744 171.623 179.067 171.623H74.4842C70.8077 171.623 67.8273 168.514 67.8273 164.679Z" fill="white"/>
<path d="M220.584 82.2966V135.988L159.621 78.24L220.584 82.2966Z" fill="url(#paint0_linear_3369_445)"/>
<path d="M153.664 65.2088C153.664 69.9369 155.462 74.4714 158.662 77.8147C161.862 81.1579 166.202 83.0362 170.727 83.0362H220.698L153.664 13V65.2088Z" fill="#33AFFF"/>
<defs>
<linearGradient id="paint0_linear_3369_445" x1="176.613" y1="67.1839" x2="217.813" y2="124.115" gradientUnits="userSpaceOnUse">
<stop stop-color="#0077C4"/>
<stop offset="1" stop-color="#009BFF"/>
</linearGradient>
</defs>
</svg>
